<svg version="1" xmlns="http://www.w3.org/2000/svg" width="478.667" height="478.667" viewBox="0 0 359.000000 359.000000"><path d="M251.5 10.4c-7.9 4.1-11.9 11.6-10.9 20.4.7 5.8 2.4 9.1 6.8 12.9 13.2 11.6 33.9 2.2 33.7-15.3-.1-15.4-15.9-25-29.6-18zM120.5 41.8c-5.9 1.3-10.8 8-10 14.1 1.3 10.3 14.3 14.7 21.7 7.3 8.8-8.7.4-23.9-11.7-21.4zM151.3 47c-3.9 2.4-5.3 4.8-5.3 9.5 0 2.9.8 4.5 3.5 7.2 3.3 3.3 3.9 3.5 8.3 3 5.5-.6 9.6-4.6 10-9.8.4-4.6-3.7-10.4-7.8-11.3-4.6-.9-5.2-.8-8.7 1.4zM79.2 47.2c-4.3 1.4-8.9 6.8-9.8 11.4-3.1 16.8 20.1 24.6 27.8 9.3 6.1-11.8-5.2-24.8-18-20.7zM181.6 55.5c-4.2 1.5-3.9 1.3-5.5 4.2-5 9.7 7.8 18.5 15.2 10.3 3.4-3.8 3.5-7.9.2-11.8-3.1-3.7-5.2-4.3-9.9-2.7zM261.7 66.3C255 68 249 76 249 83.2c0 3.9 2.9 10.6 5.7 13 4.8 4.3 14.3 5.4 20.4 2.3 6.2-3.3 10.2-12.1 8.6-19-2.5-10.2-11.8-15.8-22-13.2zM202.2 68.7c-8.5 4.1-4.2 16.5 5.1 14.8 3.5-.7 6.7-4.6 6.7-8.2 0-5.3-6.7-9.1-11.8-6.6zM305.5 73.4c-5.6 2.5-10.5 10.1-10.5 16.3.1 7.9 7.2 15.8 15.2 16.9 11 1.5 19.8-6.2 19.8-17.4 0-12.1-13.4-20.7-24.5-15.8zM126.9 81c-4.5 1.3-6.8 3-8.5 6.3-3.2 6.1-1.3 13.3 4.3 16.8 6.6 4.1 14.7 1.7 18.2-5.3 2.2-4.4 1.5-9.4-1.7-13.7-2.2-3-8.6-5.1-12.3-4.1zM215.9 85.1c-1.6 1.6-2 2.8-1.5 5.2 1.2 5.8 6.6 8.1 11 4.6 3-2.4 3.4-6.3 1-9.7-2-2.9-7.6-3-10.5-.1zM158.3 85.4c-3.3 1.5-6.3 6-6.3 9.6 0 2.9 2.6 7.6 5.2 9.4 4.7 3.3 13.4 1 15.7-4.1 4.4-9.6-5-19.1-14.6-14.9zM86.5 85.8c-5.4 1.2-10.4 7.1-11 12.9-1.4 14.3 16.2 22.1 25.9 11.6 4.5-4.8 5.1-12.1 1.5-17.9-3.2-5.2-10.1-8-16.4-6.6zM186.9 94.8c-6.2 3.1-7.4 10.5-2.5 15.1 4.2 4 12.2 2.6 14.5-2.6 2.8-6.2.2-11.4-7-13.6-.9-.3-3.2.2-5 1.1zM39.3 103c-10.3 6.4-12.4 18.9-4.6 27.7 6.8 7.7 21.3 6.5 27.2-2.2 7.7-11.5-.7-27.3-14.5-27.3-3.3 0-6.4.7-8.1 1.8zM206.1 109.6c-2.8 3.5-2.6 7.5.4 10.8 2.7 2.9 5.3 3.3 9.4 1.1 3.2-1.6 4.1-3.3 4.1-7.4 0-6.6-9.8-9.7-13.9-4.5zM256.5 115.1c-14 4.3-13.6 24.8.5 28.7 6.2 1.6 12.3-.6 16.4-6.1 2.9-3.9 2.9-12.5 0-16.3-4.3-5.8-10.7-8.2-16.9-6.3zM299 123.2c-3.9 2.7-7 8.1-7 12.2 0 4.2 3.5 10.9 6.7 12.8 5 2.9 9.8 3.2 14.6.9 10.5-5.1 11.5-19.3 1.8-25.8-4.6-3.1-11.6-3.1-16.1-.1zM144 124.2c-10.1 2.7-13 14-5.5 21.5 4.4 4.4 10.6 4.8 15.7 1.1 11.4-8.1 3.3-26.1-10.2-22.6zM176.3 128.5c-11.9 5.1-6.5 22.3 6.3 20.2 4.4-.7 6.3-2.3 8-6.4 2.4-5.7-.4-12.1-6.3-14.4-3.2-1.2-4.1-1.1-8 .6zM102.4 129.6c-4.2 1.9-5.9 3.5-7.9 7.3-4.1 8 .8 18.7 9.7 20.9 11.2 2.9 21.5-8.2 17.8-19.2-1.1-3.4-6.9-9.5-9.3-9.7-5.9-.6-7.9-.4-10.3.7zM335.9 137.4c-9.6 6.6-9 20 1.1 25.3 5.3 2.8 8.2 2.9 13.7.2 7.4-3.6 10.2-12 6.7-19.6-3.7-7.8-14.5-10.7-21.5-5.9zM201.6 139.6c-3.6 3.7-3.6 9.5 0 12.9 2.7 2.5 3.9 2.9 8.4 2.7 3.4-.2 7-4.1 7.5-8.4.4-3-.1-4.2-2.4-6.7-3.9-4.1-9.6-4.3-13.5-.5zM58.4 145.4c-6.5 2.9-10.2 8-10.8 15-.9 9.7 6.2 17.7 16.2 18.4 7 .4 11.5-1.8 15.4-7.4 4.8-6.9 4.2-15.4-1.6-21.5-4.9-5.2-13.2-7.1-19.2-4.5zM240.5 156c-3.6 2.3-6.5 8.3-5.8 11.9 2.1 12.1 17.1 15.7 23.3 5.6 2.4-3.9 2.6-8.5.4-13-2.9-6.1-12-8.4-17.9-4.5zM288.4 161.5c-11.5 4.9-9.3 21.7 3.1 24.1 8.8 1.6 16.6-7 14.2-15.6-2.1-8-9.7-11.8-17.3-8.5zM145.5 171.9c-4.7 2-7.5 8.4-5.4 12.3 3.1 5.7 8.1 7.6 12.9 4.7 6.6-4 6.9-12.2.6-16-3.3-2-5-2.2-8.1-1zM14.7 174.3c-17.5 5.4-19.9 29.5-3.6 37.7 10.7 5.5 23.7.8 28.4-10.2 6.5-15.7-8.6-32.4-24.8-27.5zM325.4 175.4c-6.9 3-9.7 12-5.8 18.5 2.3 3.9 5.7 5.6 11.5 5.6 3.9 0 5.3-.5 7.7-2.8 8.1-7.8 4.1-20.6-6.8-22.1-1.9-.3-4.9.1-6.6.8zM222 186.7c-8.3 7.4-2 20.7 8.9 18.9 5.6-.9 8.6-4.7 8.6-10.7 0-4.5-.4-5.4-3.3-8-4.4-3.9-9.9-4-14.2-.2zM114.5 187.2c-3.5 3-3.7 7.9-.5 11.3 5.3 5.6 14.9 1 13.5-6.5-1.2-6.6-8-9.1-13-4.8zM270.4 191.6c-7 3.4-8.2 12.8-2.2 17.9 3 2.5 4.3 2.9 8.7 2.5 10.6-.9 12.4-16.5 2.4-20.6-4.1-1.7-5.1-1.7-8.9.2zM88.1 193.6c-3.4 4.3-1.2 10 4.3 11 2.1.3 3.4-.2 5.7-2.5 2.6-2.6 2.8-3.3 1.8-5.7-1.6-4.3-2.9-5.4-6.4-5.4-2.4 0-3.9.7-5.4 2.6zM152.1 198.3c-9.3 3.2-9.8 15.7-.9 20 1.7.8 3.8 1.3 4.7 1.2.9-.2 2.1-.4 2.8-.4.6-.1 2.5-1.3 4.2-2.7 5.4-4.5 5-12.3-.9-16.5-3.6-2.5-6.1-2.9-9.9-1.6zM309.3 204.7c-5.8 1.1-10.1 10-7.2 15.1 4.6 8.1 15.5 8.6 19.5 1 4.4-8.5-2.8-17.9-12.3-16.1zM204.3 206.7c-5.3 2.5-6.9 9-3.3 13.6 2.8 3.5 6.9 4.8 10.6 3.2 5.4-2.2 7.2-6.5 5.3-12.3-1.7-5-7.3-7.1-12.6-4.5zM115.2 209.6c-7.4 5.2-4.9 15.6 4 17.1 4.8.7 10.1-3.8 10.1-8.5 0-8.1-7.9-12.9-14.1-8.6zM83.5 212.5c-1.6 1.5-2.5 3.6-2.5 5.5s.9 4 2.5 5.5c1.5 1.6 3.6 2.5 5.5 2.5s4-.9 5.5-2.5c1.6-1.5 2.5-3.6 2.5-5.5s-.9-4-2.5-5.5c-1.5-1.6-3.6-2.5-5.5-2.5s-4 .9-5.5 2.5zM248.7 214c-5.3 4.2-4 13.6 2 15.7 5.2 1.9 9.7.4 11.8-3.8 2.3-4.3 1.8-7.7-1.4-11-3.6-3.5-8.6-3.9-12.4-.9zM167.5 226.3c-6.2 2-10 7.6-9 13.5 1.9 12.3 16.3 15.5 23.3 5.2 6.3-9.4-3.5-22.2-14.3-18.7zM232.4 225.8c-3.3.5-6.7 4.8-6.7 8.4 0 3.7 4.1 7.8 7.8 7.8 3 0 7.4-3.8 8-6.8.9-5.2-4-10.3-9.1-9.4zM285.4 228.3c-5.1 4.4-3.8 13.1 2.4 15.6 4.2 1.6 9.3.2 11.4-3.2 2.6-4.2 2.2-8.4-1-11.7-3.9-3.8-8.9-4.1-12.8-.7zM82.9 236c-2.3 2.3-2.9 3.7-2.7 6.4.2 3.2 3.6 8.5 5.6 8.7.4 0 1.6.2 2.7.5 3.2.6 7.5-1.6 9.1-4.9 5-9.6-7.1-18.4-14.7-10.7zM121.5 235.7c-5.8 3.1-6.9 12.7-2.1 17.2 4.9 4.6 13.7 3.6 16.9-1.8 5.9-10-4.5-20.8-14.8-15.4zM265 242.2c-1.9 2-2.5 4.3-2.1 7.8.1.8 1.4 2.6 2.8 3.9 4.5 4 12 1.2 13-4.9.4-2.3-1.8-7-3.8-8-3.1-1.7-7.7-1.1-9.9 1.2zM246.5 249.5c-4 3.9-3.1 8.9 1.9 11 6.3 2.7 12-4.2 8.2-10-.9-1.4-2-2.5-2.4-2.6-.4 0-1.7-.2-3-.5-1.5-.3-3.1.4-4.7 2.1zM190.5 255.4c-6.3 2.8-9.9 9.7-8.5 16 1.7 7.4 6.5 11.8 13.3 12.2 5.3.2 8.8-1.1 11.9-4.4 11.2-12-1.8-30.4-16.7-23.8zM91.4 260.6c-10 4.9-6 20.4 5.2 20.4 3.5 0 7.7-2.4 9.3-5.3 2.9-5.4.8-12.7-4.4-15.1-4.1-2-6.1-2-10.1 0zM136.8 263.9c-6.7 3.4-9 10.3-5.6 17 2.2 4.4 6.1 6.7 12.1 7 3.3.1 4.5-.4 7.8-3.7 3.3-3.4 3.9-4.6 3.9-8.3 0-10.3-9.4-16.5-18.2-12zM226.1 281.4c-10.4 5.4-12.9 18.6-5.2 26.9 7.6 8.3 19.4 8.1 26.4-.3 3.9-4.6 5.2-12.4 2.8-17.5-4.4-9.7-15.1-13.7-24-9.1zM106 288.8c-12.4 6-6.6 25.7 7.1 23.9 6.9-.9 11.2-5.7 11.3-12.6 0-9.3-9.9-15.4-18.4-11.3zM164 291.2c-12.9 3.4-14.8 21.5-2.9 27.5 7.5 3.8 16.8.8 20.3-6.4 5.6-11.8-4.9-24.4-17.4-21.1zM279.4 299.2c-5 1-11.5 6.4-13.9 11.4-4.6 9.8-.4 21.8 9.5 26.9 3.9 2 11.1 2.6 15.7 1.2 4.4-1.4 11.9-8.7 12.8-12.5 1.3-6.2 1.3-9.5-.1-13.6-3.4-9.9-13.7-15.6-24-13.4zM130.7 317.2c-7.5 3.8-10.2 12.4-6.4 20 7.1 13.8 27.8 8.7 27.9-6.8 0-10.8-11.9-18.2-21.5-13.2zM198.5 317.4c-13.1 6.1-14.4 23.1-2.2 30.9 9.8 6.4 22.7 1.1 25.8-10.5 2.1-7.6-1.5-15.9-8.3-19.4-4.3-2.2-11.7-2.7-15.3-1z"/></svg>